<?xml version="1.0" encoding="utf-8"?>
<!-- Generator: Adobe Illustrator 25.2.3, SVG Export Plug-In . SVG Version: 6.00 Build 0)  -->
<svg version="1.1" xmlns="http://www.w3.org/2000/svg" xmlns:xlink="http://www.w3.org/1999/xlink" x="0px" y="0px"
	 viewBox="0 0 600 600" style="enable-background:new 0 0 600 600;" xml:space="preserve">
<style type="text/css">
	.st0{fill:#404B7C;}
	.st1{fill:none;stroke:#9AB3DA;stroke-width:2;stroke-linecap:round;stroke-linejoin:round;stroke-miterlimit:10;}
	.st2{fill:#9AB3DA;}
	.st3{fill:none;stroke:#404B7C;stroke-width:2;stroke-linecap:round;stroke-linejoin:round;stroke-miterlimit:10;}
	.st4{fill:#6B81BE;}
	.st5{fill:#FFFFFF;}
	.st6{fill:#F68D88;}
	
		.st7{fill:none;stroke:#9AB3DA;stroke-width:2;stroke-linecap:round;stroke-linejoin:round;stroke-miterlimit:10;stroke-dasharray:6;}
	.st8{fill:#E26A6A;}
	.st9{fill:#ECBDBB;}
	.st10{fill:none;stroke:#6B81BE;stroke-width:2;stroke-linecap:round;stroke-linejoin:round;stroke-miterlimit:10;}
	.st11{fill:none;stroke:#ECBDBB;stroke-width:2;stroke-linecap:round;stroke-linejoin:round;stroke-miterlimit:10;}
</style>
<g id="PLANT">
	<g>
		<g>
			<g>
				<g>
					<path class="st0" d="M196.9483795,560.8228149c21.5502167-4.6469727-9.0775757-75.6367188-21.9692993-90.9707947
						c-12.8917389-15.3340759-15.113327,3.5374451-15.113327,3.5374451s-36.4474487-55.001709-56.8432693-62.1098022
						s-9.8308258,14.1829834-9.8308258,14.1829834s-52.5900955-41.1384277-77.2434006-24.1626282
						c-24.6533051,16.9758301,45.0220566,50.62677,45.0220566,50.62677s-21.559185-4.1295776-26.2126579,7.7844849
						s79.4895859,44.7792053,79.4895859,44.7792053S94.2763062,503.9850159,89.913681,515.15448
						C85.5510483,526.3239136,163.6792755,567.9967041,196.9483795,560.8228149z"/>
				</g>
				<g>
					<path class="st1" d="M28.8028927,412.3614807c0,0,94.5084381,45.9422302,166.3477783,138.5044861"/>
					<path class="st1" d="M69.1612701,467.1637878c0,0,34.8624878,8.1086731,61.202774,15.4233398
						c0,0-12.6888885-34.7120667-24.7329712-53.3203125"/>
					<path class="st1" d="M132.8422852,524.3511353l51.3392029,12.9354248c0,0-4.0559235-32.6314087-11.7241669-51.5709229"/>
				</g>
			</g>
			<g>
				<g>
					<path class="st2" d="M232.2823639,558.5773926c22.015152,1.1572876,11.0416412-75.3750305,2.6142273-93.5494385
						c-8.4274292-18.174408-15.5122986-0.5427856-15.5122986-0.5427856s-20.7760468-62.6255493-38.5994568-74.8255615
						c-17.82341-12.2000427-13.2011871,11.1144409-13.2011871,11.1144409s-39.9851761-53.4721985-68.2230148-43.5430298
						c-28.2378387,9.9291382,30.1969681,60.6481628,30.1969681,60.6481628s-19.7260056-9.6300049-27.3364029,0.6501465
						c-7.6103897,10.2801514,64.993187,64.0285645,64.993187,64.0285645s-19.1419983-5.7164307-26.2767334,3.9212036
						C133.8029022,496.1167297,198.295517,556.7908325,232.2823639,558.5773926z"/>
				</g>
				<g>
					<path class="st3" d="M108.8708725,371.2720947c0,0,79.1836777,69.0831604,124.283287,177.2251587"/>
					<path class="st3" d="M133.4736176,434.7291565c0,0,31.5235138,16.9532471,55.029953,30.9089661
						c0,0-3.1582642-36.8233643-9.9103851-57.9358215"/>
					<path class="st3" d="M179.9610596,506.5942078l46.1618042,25.9253845c0,0,4.62883-32.5550842,2.1866608-52.8415833"/>
				</g>
			</g>
		</g>
		<g>
			<g>
				<g>
					<path class="st0" d="M403.0516357,560.8228149c-21.5502319-4.6469727,9.0775452-75.6367188,21.9692993-90.9707947
						c12.8917236-15.3340759,15.1133118,3.5374451,15.1133118,3.5374451s36.4474487-55.001709,56.8432617-62.1098022
						c20.3958435-7.1080933,9.8308411,14.1829834,9.8308411,14.1829834s52.5900879-41.1384277,77.2434082-24.1626282
						c24.6532593,16.9758301-45.0220947,50.62677-45.0220947,50.62677s21.5592041-4.1295776,26.2126465,7.7844849
						c4.6535034,11.9140625-79.489563,44.7792053-79.489563,44.7792053s19.9709473-0.5054626,24.3335876,10.6640015
						C514.4489746,526.3239136,436.3207397,567.9967041,403.0516357,560.8228149z"/>
				</g>
				<g>
					<path class="st1" d="M571.1970825,412.3614807c0,0-94.5084229,45.9422302-166.3477478,138.5044861"/>
					<path class="st1" d="M530.8387451,467.1637878c0,0-34.8625183,8.1086731-61.2027893,15.4233398
						c0,0,12.6888733-34.7120667,24.7329712-53.3203125"/>
					<path class="st1" d="M467.1577148,524.3511353l-51.3392029,12.9354248c0,0,4.0559082-32.6314087,11.7241516-51.5709229"/>
				</g>
			</g>
			<g>
				<g>
					<path class="st2" d="M367.7176208,558.5773926c-22.0151367,1.1572876-11.041626-75.3750305-2.6141968-93.5494385
						c8.4273987-18.174408,15.5122986-0.5427856,15.5122986-0.5427856s20.7760315-62.6255493,38.5994263-74.8255615
						c17.8234253-12.2000427,13.2012024,11.1144409,13.2012024,11.1144409s39.9851685-53.4721985,68.2230225-43.5430298
						c28.2378235,9.9291382-30.1969604,60.6481628-30.1969604,60.6481628s19.7259827-9.6300049,27.3363953,0.6501465
						c7.6103821,10.2801514-64.9931946,64.0285645-64.9931946,64.0285645s19.1419983-5.7164307,26.2767334,3.9212036
						S401.7044983,556.7908325,367.7176208,558.5773926z"/>
				</g>
				<g>
					<path class="st3" d="M491.1291199,371.2720947c0,0-79.1836548,69.0831604-124.2832947,177.2251587"/>
					<path class="st3" d="M466.5263672,434.7291565c0,0-31.5234985,16.9532471-55.0299377,30.9089661
						c0,0,3.1582642-36.8233643,9.9103699-57.9358215"/>
					<path class="st3" d="M420.0389404,506.5942078l-46.1618042,25.9253845c0,0-4.6288452-32.5550842-2.1866455-52.8415833"/>
				</g>
			</g>
		</g>
	</g>
</g>
<g id="MONITOR">
	<g>
		<path class="st2" d="M334.9161072,420.664032h-74.8899536l-7.1500092,101.1000061h89.1899872L334.9161072,420.664032z
			 M285.0761414,491.7640076l2.9000244-41.0999756h18.9899902l2.9099731,41.0999756H285.0761414z"/>
		<path class="st0" d="M385.8861389,506.9855347c-2.0200195,5.9699707-4.6199951,11.7299805-7.9899902,17.2099609
			c-1.3500366,2.210022-3.7900391,3.5300293-6.3800049,3.5300293H223.4261322c-2.5899658,0-5.0299683-1.3200073-6.3800049-3.5300293
			c-3.3699951-5.4799805-5.9699707-11.2399902-7.9899902-17.2099609c-0.6799927-2.0200195,0.8500366-4.1099854,2.9800415-4.1099854
			h170.8699799C385.0361633,502.8755493,386.5661316,504.9655151,385.8861389,506.9855347z"/>
		<g>
			<path class="st4" d="M537.4711304,439.5531921h-480c-6.2043915,0-11.2340431-5.0296631-11.2340431-11.2340393V116.8297882
				c0-6.2043915,5.0296516-11.2340469,11.2340431-11.2340469h480c6.2044067,0,11.2340698,5.0296555,11.2340698,11.2340469
				v311.4893799C548.7052002,434.5235291,543.6755371,439.5531921,537.4711304,439.5531921z"/>
			<path class="st5" d="M57.4711456,428.5527344c-0.1293945,0-0.234375-0.1044922-0.234375-0.2333984V116.8295898
				c0-0.1289062,0.1049805-0.2338867,0.234375-0.2338867h480c0.1289062,0,0.234375,0.1049805,0.234375,0.2338867v311.4897461
				c0,0.1289062-0.1054688,0.2333984-0.234375,0.2333984H57.4711456z"/>
		</g>
	</g>
</g>
<g id="TABLE">
	<g>
		<g>
			<rect x="57.2367897" y="527.7255249" class="st4" width="480.4687195" height="47.6574593"/>
			<g>
				<path class="st2" d="M255.098526,527.7255249c-13.450882,1.802063-27.4070435,4.284729-41.8936768,7.444397
					c-52.2537537,11.3945312-87.4042511,6.2617188-107.690094-0.0498047
					c-7.4022903-2.303772-13.4112244-4.9268799-18.1330185-7.3945923H77.0484772
					c5.4607773,3.5679321,14.0053024,8.1537476,26.1122437,11.9678345
					c21.0759125,6.6386719,57.5132599,12.0869141,111.4235535,0.328125
					c100.5241547-21.9240112,174.8857269-10.7294312,231.3436737,35.3614502h8.2619019
					c-29.2678528-25.2529907-63.263916-41.0586548-103.1357117-47.6574097H255.098526z"/>
				<path class="st2" d="M312.0692749,551.8056641c-26.1118164-3.5097656-52.2687988,1.6064453-79.9596558,7.0214844
					c-37.2658997,7.2871094-75.8013611,14.8232422-117.1179504,1.2783203
					c-23.087532-7.5681763-42.4002914-9.5395508-57.7548981-8.9069214v5.1504517
					c14.7573853-0.6789551,33.4353561,1.1225586,55.7532425,8.4400635
					c42.9056473,14.0625,82.2830276,6.3652344,120.363533-1.0820312
					c27.1528015-5.3105469,52.7996216-10.3232422,77.8504028-6.9599609
					c18.6318359,2.503418,33.1408997,9.8236084,44.2718811,18.6358643h8.3468628
					C349.3427124,562.5253906,331.7397766,554.4484863,312.0692749,551.8056641z"/>
				<path class="st2" d="M499.9800415,575.3829346h9.0701904c-8.2481995-6.0557861-19.6680603-13.6939697-34.0708618-21.5675049
					c-15.7727661-8.6228027-36.8490295-18.3649902-62.2947693-26.0899048h-19.1282654
					c32.7151184,7.980835,59.3447876,19.9295654,78.2315674,30.2393188
					C483.0309448,564.1022949,492.4792175,570.1505737,499.9800415,575.3829346z"/>
				<path class="st2" d="M537.7055054,566.3999023v-7.194519c-15.7503662-13.619751-34.8171997-23.8273926-54.4668579-31.4798584
					h-15.2485962C493.0428467,536.0526733,518.4418335,548.321167,537.7055054,566.3999023z"/>
			</g>
		</g>
	</g>
</g>
<g id="WINDOWS">
	<g>
		<path class="st4" d="M269.8965759,191.8936157H88.6199799c-5.0763245,0-9.1914902-4.1151733-9.1914902-9.1914825v-41.3617096
			c0-5.0763245,4.1151657-9.1914825,9.1914902-9.1914825h181.2765961c5.0763245,0,9.1914978,4.1151581,9.1914978,9.1914825
			v41.3617096C279.0880737,187.7784424,274.9729004,191.8936157,269.8965759,191.8936157z"/>
		<path class="st4" d="M509.3859253,400.2340393H306.6676331c-5.0763245,0-9.1914978-4.1151428-9.1914978-9.1914673V141.3404236
			c0-5.0763245,4.1151733-9.1914825,9.1914978-9.1914825h202.7182922c5.076355,0,9.1915283,4.1151581,9.1915283,9.1914825
			V391.042572C518.5774536,396.1188965,514.4622803,400.2340393,509.3859253,400.2340393z"/>
		<path class="st6" d="M167.2582703,319.0425415H88.6199799c-5.0763245,0-9.1914902-4.1151733-9.1914902-9.1914673v-78.6383057
			c0-5.0763245,4.1151657-9.1914978,9.1914902-9.1914978h78.6382904c5.0763245,0,9.1914978,4.1151733,9.1914978,9.1914978
			v78.6383057C176.4497681,314.9273682,172.3345947,319.0425415,167.2582703,319.0425415z"/>
		<g>
			<path class="st5" d="M168.4328308,244.6595764v1.4893341c-1.0197296,0.0805054-1.8784332,0.3622589-2.5761414,0.8452911
				s-1.3149109,1.2209778-1.8516083,2.2138672c-0.1609955,0.3220215-1.0063019,2.4017181-2.5358887,6.23909l-17.1071777,45.0421906
				h-1.5698242L129.2674408,265.30896l-14.8933029,35.1803894h-1.4893341L94.9323273,255.930191
				c-1.8247604-4.4814148-3.0994186-7.1917267-3.8239517-8.1309509c-0.7245407-0.939209-1.9455261-1.4893188-3.6629562-1.6503296
				v-1.4893341h23.6682892v1.4893341c-1.9052658,0.0536652-3.1732101,0.3421326-3.803833,0.8654175
				c-0.6306152,0.5232849-0.9459229,1.1740265-0.9459229,1.9522247c0,1.0197296,0.6574554,3.1799316,1.9723587,6.4806061
				l10.707077,26.4859467l8.5737228-20.6896362l-2.2541275-5.7963104c-1.2343979-3.1665039-2.1870346-5.2797394-2.8579025-6.3397217
				c-0.6708679-1.059967-1.4423676-1.8180542-2.3144989-2.2742462s-2.1534958-0.6842804-3.8440857-0.6842804v-1.4893341h26.445694
				v1.4893341c-1.8516083,0.026825-3.1799316,0.1744232-3.9849701,0.4427643
				c-0.5635376,0.187851-1.0063019,0.5031586-1.3283234,0.9459381c-0.3220215,0.4427643-0.4830322,0.9459229-0.4830322,1.5094452
				c0,0.6172028,0.6037903,2.5090637,1.8113556,5.6755676l9.9422913,25.8418884l8.8957367-23.3865051
				c0.939209-2.4151306,1.5161591-4.0654755,1.730835-4.9510193c0.2146759-0.8855591,0.3220215-1.70401,0.3220215-2.4553833
				c0-1.100235-0.3756866-1.9656525-1.1270599-2.5962677s-2.1870422-0.9727631-4.3069916-1.0264282v-1.4893341H168.4328308z"/>
		</g>
		<g>
			<path class="st2" d="M269.8965759,240.4042664h-64.3404236c-5.0763245,0-9.1914978-4.1151581-9.1914978-9.1914825v-0.0000153
				c0-5.0763245,4.1151733-9.1914978,9.1914978-9.1914978h64.3404236c5.0763245,0,9.1914978,4.1151733,9.1914978,9.1914978
				v0.0000153C279.0880737,236.2891083,274.9729004,240.4042664,269.8965759,240.4042664z"/>
			<path class="st2" d="M269.8965759,279.7234192h-64.3404236c-5.0763245,0-9.1914978-4.1151733-9.1914978-9.1914978v-0.0000305
				c0-5.0762939,4.1151733-9.1914673,9.1914978-9.1914673h64.3404236c5.0763245,0,9.1914978,4.1151733,9.1914978,9.1914673
				v0.0000305C279.0880737,275.6082458,274.9729004,279.7234192,269.8965759,279.7234192z"/>
			<path class="st2" d="M269.8965759,319.0425415h-64.3404236c-5.0763245,0-9.1914978-4.1151733-9.1914978-9.1914673v-0.0000305
				c0-5.0763245,4.1151733-9.1914978,9.1914978-9.1914978h64.3404236c5.0763245,0,9.1914978,4.1151733,9.1914978,9.1914978
				v0.0000305C279.0880737,314.9273682,274.9729004,319.0425415,269.8965759,319.0425415z"/>
		</g>
		<g>
			<g>
				<path class="st4" d="M269.8965759,360.914917H88.6199799c-5.0763245,0-9.1914902-4.1151733-9.1914902-9.1914978l0,0
					c0-5.0763245,4.1151657-9.1914978,9.1914902-9.1914978h181.2765961c5.0763245,0,9.1914978,4.1151733,9.1914978,9.1914978l0,0
					C279.0880737,356.7997437,274.9729004,360.914917,269.8965759,360.914917z"/>
				<path class="st4" d="M269.8965759,400.2340393H88.6199799c-5.0763245,0-9.1914902-4.1151428-9.1914902-9.1914673v-0.0000305
					c0-5.0763245,4.1151657-9.1914978,9.1914902-9.1914978h181.2765961c5.0763245,0,9.1914978,4.1151733,9.1914978,9.1914978
					v0.0000305C279.0880737,396.1188965,274.9729004,400.2340393,269.8965759,400.2340393z"/>
			</g>
		</g>
	</g>
</g>
<g id="ORNAMENT_4">
	<g>
		<circle class="st2" cx="56.2521706" cy="63.0246658" r="6.375"/>
		<circle class="st2" cx="558.4072266" cy="223.8899384" r="2.75"/>
		<circle class="st2" cx="571.1970825" cy="347.4333801" r="5.5"/>
		<circle class="st2" cx="244.7938385" cy="84.9830017" r="6.6666665"/>
	</g>
</g>
<g id="LINE">
	<path class="st7" d="M127.9391251,244.7650757c0,0-42.260643-81.414444,11.489357-121.7345428
		c65.4468079-49.0943604,122.2978668,30.6157074,60,48.2046661C127.7672501,191.4677887,77.4301834,29,309.8761292,38.1914902"/>
</g>
<g id="PAPER_PLANE">
	<g>
		<polygon class="st8" points="320.8101501,59.0067406 373.5088196,16.623806 323.0029602,29.9003906 		"/>
		<polygon class="st9" points="373.5088196,16.623806 299.6838074,19.5174217 320.8101501,27.2930565 320.8101501,27.2930565 		"/>
		<polygon class="st9" points="373.5088196,16.623806 325.0730896,30.9582176 325.0730286,30.9582176 335.2582703,59.0067406 		"/>
		<polygon class="st6" points="320.8101501,27.2930565 320.8101501,59.0067406 325.0730286,30.9582176 373.5088196,16.623806 		"/>
	</g>
</g>
<g id="ORNAMENT_3">
	<g>
		<g>
			<line class="st10" x1="437.2167358" y1="11.8936167" x2="437.2167358" y2="18.4560223"/>
			<line class="st10" x1="437.2167358" y1="25.4608383" x2="437.2167358" y2="32.023243"/>
		</g>
		<g>
			<line class="st10" x1="447.2815247" y1="21.9584312" x2="440.7191467" y2="21.9584312"/>
			<line class="st10" x1="433.714325" y1="21.9584312" x2="427.1519165" y2="21.9584312"/>
		</g>
	</g>
</g>
<g id="ORNAMENT_2">
	<g>
		<g>
			<line class="st10" x1="127.9391251" y1="56.6496658" x2="127.9391251" y2="63.2120743"/>
			<line class="st10" x1="127.9391251" y1="70.2168884" x2="127.9391251" y2="76.7792969"/>
		</g>
		<g>
			<line class="st10" x1="138.0039368" y1="66.7144775" x2="131.4415283" y2="66.7144775"/>
			<line class="st10" x1="124.4367218" y1="66.7144775" x2="117.8743134" y2="66.7144775"/>
		</g>
	</g>
</g>
<g id="ORNAMENT_1">
	<g>
		<g>
			<line class="st10" x1="565.6970825" y1="163.7823486" x2="565.6970825" y2="170.3447571"/>
			<line class="st10" x1="565.6970825" y1="177.3495789" x2="565.6970825" y2="183.9119873"/>
		</g>
		<g>
			<line class="st10" x1="575.7619019" y1="173.847168" x2="569.1995239" y2="173.847168"/>
			<line class="st10" x1="562.1947021" y1="173.847168" x2="555.6322632" y2="173.847168"/>
		</g>
	</g>
</g>
<g id="HAIR">
	<path class="st0" d="M377.3875427,94.5387573c0,0,0.1252747-0.2444077,0.3913269-0.6676636
		c1.8790894-2.9894638,10.7816772-14.9012146,32.1813354-12.6394653
		c24.4295044,2.5819778,33.9629822,32.3740463,26.4156494,44.6881027s6.5542603,17.8752365,21.2516785,24.0322647
		s26.4156189,26.2170258,12.5126648,44.2908783s-84.808075,22.244751-89.3762207,0.7944641
		c-4.5681152-21.4503021,9.9306946-38.7296906,8.1431885-56.0090942L377.3875427,94.5387573z"/>
</g>
<g id="NECK">
	<g>
		<polygon class="st9" points="391.6647339,142.0153961 393.9368591,153.6462402 396.2407837,165.4359283 408.5548401,163.8470154 
			406.4256592,141.3162842 405.7742615,134.452179 		"/>
		<path class="st0" d="M391.6647339,142.0153961l2.2721252,11.6308441c7.3566589-0.9533997,10.8363647-6.9912415,12.4888-12.3299561
			l-0.6513977-6.8641052L391.6647339,142.0153961z"/>
	</g>
</g>
<g id="RIGHT_ARM">
	<g>
		<g>
			<path class="st9" d="M297.8421631,228.1677704l-7.7446289-14.8347931c0,0-1.7452698-22.7976074-3.1269531-25.8518219
				c-1.3816833-3.0542297-15.2711182-8.6536407-18.5434875-8.6536407c-3.2723999,0-17.3072815,4.4358978-19.0525513,8.944519
				c-1.7452698,4.508606,6.1811676,3.1996613,6.1811676,3.1996613s-6.7629242,4.7994843-5.3085327,7.853714
				s9.5262604,0.2181549,9.5262604,0.2181549s-7.8536987,3.7087097-6.3265991,6.908371
				c1.5271149,3.1996613,8.0718689,0.5817566,8.0718689,0.5817566s-2.545166,4.7994843-0.3635864,6.6174774
				s6.0357361-0.65448,6.0357361-0.65448l9.5262451,6.0357361l6.399353,19.4888458L297.8421631,228.1677704z"/>
			<g>
				
					<rect x="254.1960449" y="161.2760315" transform="matrix(0.3214705 -0.9469196 0.9469196 0.3214705 -4.3056941 372.5400696)" class="st2" width="7.1992407" height="55.9967995"/>
				<polygon class="st2" points="232.4406128,176.8652191 230.1262665,183.6823273 220.8881989,176.7446747 				"/>
			</g>
			<path class="st9" d="M259.2644043,191.1171265c-5.7610016,1.4935913,4.4359131,19.2707062,8.944519,23.4884338
				c4.508606,4.2177429,12.507782,3.999588,12.507782,3.999588s5.8175659-5.3812561,3.7086792-12.507782
				c-2.1088562-7.1265106-12.7259216-5.3812408-12.7259216-5.3812408S263.1912842,190.0990601,259.2644043,191.1171265z"/>
		</g>
		<path class="st6" d="M377.1303711,269.6799927c-24.5100098,40.8499756-45.2799683,64.8499756-62.9799805,49.8699951
			c-11.8499756-10.0300293-25.6900024-42.789978-33.539978-63.3499756
			c-3.8699951-10.1500244-6.2900391-17.3300171-6.2900391-17.3300171
			c12.0900269-15.1500244,26.0400391-14.9799805,26.0400391-14.9799805l10.9099731,11.3399658l10.8800049,11.2999878
			c0,0,21.6199951-54.5199585,44.0900269-60.9299927C397.2203979,176.7399902,401.6403809,228.8299561,377.1303711,269.6799927z"/>
		<line class="st11" x1="321.9816895" y1="247.5531921" x2="332.8753052" y2="293.3404236"/>
		<path class="st2" d="M308.9403687,232.8099976c-19.4199829,2.8399658-26.9699707,13.2699585-29.789978,19.5
			c-3.0100098-8.0499878-4.8300171-13.4400024-4.8300171-13.4400024
			c12.0900269-15.1500244,26.0400391-14.9799805,26.0400391-14.9799805L308.9403687,232.8099976z"/>
	</g>
</g>
<g id="BODY">
	<g>
		<polygon class="st2" points="340.742981,381.8510437 337.6412659,400.2340393 486.5236511,400.2340393 483.0342102,381.8510437 		
			"/>
		<path class="st6" d="M432.2723694,158.9461365c0,0-28.6004028-12.1154327-58.1938477,2.3833618l5.5611877,17.0807953
			l48.6603699-1.7875214L432.2723694,158.9461365z"/>
		<path class="st6" d="M487.7210693,380.9500122c-1.038147-59.8634644-25.2658386-192.072052-25.2658386-192.072052
			s-23.4300232-18.412262-57.5915833-17.6177673c-34.1615601,0.7944336-54.0229492,28.203125-54.0229492,28.203125
			s-17.4780273,27.4087524-17.0808105,40.9144897s9.9307251,50.8450928,9.9307251,50.8450928l-14.0891724,88.3309021
			c-0.9616699,6.0290527,3.6961975,11.488739,9.8014832,11.488739h138.3935547
			C483.3457947,391.0425415,487.8172913,386.4985046,487.7210693,380.9500122z"/>
		<path class="st11" d="M343.3536682,212.5223236c-4.6897278,8.9424591-9.8108215,20.4749298-9.5937805,27.855484
			c0.3972168,13.5057373,9.9307251,50.8450928,9.9307251,50.8450928l-4.7125549,29.5449524"/>
		<path class="st11" d="M424.1427917,172.8189697c-5.9189758-1.096344-12.3802185-1.719223-19.2791443-1.5587769
			c-9.0176392,0.2097015-17.0388489,2.2739105-23.9613342,5.1989441"/>
	</g>
</g>
<g id="LEFT_ARM">
	<g>
		<g>
			<g>
				<path class="st6" d="M513.3903809,355.5799561c-4.9799805,6.6800537-8.5800171,10.9700317-8.5800171,10.9700317
					s-20.1399536-0.4500122-26.1300049-19.3800049l3.8300171-10.7999878l8.4925842-40.3061523
					c0,0-30.4328613-19.8990784-52.8510742-46.9787292c-32.897644-39.7381439-9.1614685-72.9251404,11.0185242-66.5751038
					c23.9202881,7.5271301,65.4567871,48.9716034,87.3890991,72.2094727
					c9.3152466,9.8697205,20.3157959,26.4231567,11.2994385,45.9400635
					C543.7832642,309.4818726,522.3403931,343.5899658,513.3903809,355.5799561z"/>
			</g>
			<g>
				<path class="st11" d="M449.1704102,182.5100098c-20.1799927-6.3500366-43.9161682,26.8369598-11.0185242,66.5751038
					c5.0645752,6.1176605,10.538208,11.868866,15.9776001,17.1069336c0,0,14.6492615,13.4135742,21.4436646,18.5930176"/>
			</g>
			<path class="st2" d="M504.8149109,366.5453491c0,0,3.5914307-4.2836609,8.5726013-10.9648743
				c-7.6227417-17.5836792-24.4099121-19.2564392-30.8760376-19.2096863l-3.8342285,10.7953796
				C484.6726379,366.0983276,504.8149109,366.5453491,504.8149109,366.5453491z"/>
		</g>
		<path class="st9" d="M482.6625366,347.4680786l-5.2766113,16.1702271c0,0-19.7446594-7.6595764-29.957428-7.8298035
			c-10.2127686-0.1701965-23.8298035,15.6595764-23.6595764,19.4042664
			c0.1701965,3.7446899,6.9787292,2.0425415,6.9787292,2.0425415s-7.2127686,6.0851135-4.2127686,9.1489563
			c3,3.0638123,8.0425415-0.4468079,8.0425415-0.4468079s-4.2209778,4.9148865-0.9615479,7.8510437
			c3.2594299,2.9361877,9.7062378-2.9361572,9.7062378-2.9361572s-1.1489563,5.5531921,3.127655,6.127655
			c4.2765808,0.5744629,14.5531921-10.0851135,14.5531921-10.0851135s10.3404236,5.4893799,18.4468079,5.042572
			s12.2340393-14.5319214,12.2340393-14.5319214l12.3404236-18.5531921
			C504.024231,358.872345,496.8753052,346.7021179,482.6625366,347.4680786z"/>
		<path class="st11" d="M492.024231,295.8085022c0,0,10.9787292-15.5444641,30.8936157-14.665863"/>
	</g>
</g>
<g id="HEAD">
	<g>
		<path class="st9" d="M396.041626,99.1068726c13.2589722,7.2144394,20.258606,47.865921-3.3764343,49.852066
			C369.0301514,150.9450684,369.0301514,84.4094467,396.041626,99.1068726z"/>
		<path class="st0" d="M411.136261,131.8781433c0,0-4.5681152-11.5195999-10.3279114-18.669693
			c0,0-14.101593,8.9376221-26.2170105,4.5681152c-12.115448-4.3694992-18.8683167-27.6073151-8.5404053-32.1754303
			c10.3279114-4.5681229,15.8890991,5.7597961,15.8890991,5.7597961S426.4295349,78.4510345,411.136261,131.8781433z"/>
		<g>
			<path class="st9" d="M406.170929,128.3031006c0,0,3.7736511-14.8960342,15.6904907-11.916832
				c11.9168091,2.9792099,0.9930725,25.6211777-16.087738,18.0738602L406.170929,128.3031006z"/>
			<g>
				<g>
					<path class="st0" d="M410.7779541,131.8121948c0.3173218,0,0.6175842-0.1916199,0.7401428-0.5050659
						c0.0333862-0.0853424,3.3997192-8.483757,10.4691467-9.5551834c0.4344482-0.0651703,0.7323608-0.4701538,0.6664429-0.9038467
						c-0.0651855-0.4352417-0.4725037-0.7316132-0.9038696-0.6664429
						c-7.9872131,1.2095261-11.5638123,10.1665497-11.7120056,10.5474854
						c-0.1590271,0.4088593,0.0426636,0.868927,0.4515381,1.0279694
						C410.5840149,131.7943573,410.6817627,131.8121948,410.7779541,131.8121948z"/>
				</g>
				<g>
					<path class="st0" d="M417.2111816,130.3660431c0.4282837,0,0.7812805-0.3398132,0.7937012-0.7711792
						c0.0023193-0.1078339,0.050415-2.6905975-1.8891602-5.7815247c-0.2327576-0.3716202-0.7246399-0.485672-1.0947266-0.2505951
						c-0.3716125,0.2327499-0.4841003,0.7230835-0.2505798,1.0947037c1.6680298,2.6580124,1.6463318,4.8753433,1.6455383,4.8970718
						c-0.0077515,0.4375763,0.3390503,0.8006592,0.7758484,0.8107452
						C417.197998,130.3660431,417.2049866,130.3660431,417.2111816,130.3660431z"/>
				</g>
			</g>
		</g>
	</g>
</g>
<g id="FACE">
	<g>
		<path class="st0" d="M399.6405945,122.1046829c0,0-2.8251648-5.1168671-6.7060547-2.9405212
			c0,0-0.1611633-1.1840134-1.201416-1.1634598c-1.0402527,0.020546-0.9973145,3.2759705-0.9973145,3.2759705
			S395.4863281,120.6686172,399.6405945,122.1046829z"/>
		<path class="st0" d="M377.4263916,125.6045837c0,0,0.0796204-5.3448715,3.2237244-4.0054932
			c0,0,0.0344238-0.9875412,0.6971741-1.1287003c1.1462708-0.2441483,1.5205688,2.8063736,1.5205688,2.8063736
			S379.5505371,123.4868469,377.4263916,125.6045837z"/>
		<g>
			
				<ellipse transform="matrix(0.9970822 -0.0763355 0.0763355 0.9970822 -8.6611214 30.4740696)" class="st0" cx="394.2993774" cy="128.5327759" rx="2.1944797" ry="2.7131748"/>
			<circle class="st5" cx="393.7435303" cy="127.6099396" r="0.5835321"/>
		</g>
		<g>
			
				<ellipse transform="matrix(0.9970822 -0.0763355 0.0763355 0.9970822 -8.7740612 29.4930019)" class="st0" cx="381.4096069" cy="129.5196075" rx="2.1944797" ry="2.7131748"/>
			<circle class="st5" cx="380.8537598" cy="128.596756" r="0.5835321"/>
		</g>
		<g>
			<path class="st0" d="M387.0963745,138.3392944c0.6509094,0,1.2599487-0.1202545,1.6967468-0.2653351
				c0.415863-0.138092,0.6392822-0.5865173,0.5027466-1.0023651c-0.1365356-0.4150848-0.5865479-0.6431732-1.0016174-0.5066223
				c-0.0232544,0.0077515-2.2491455,0.7145386-2.9241028-0.6835175c-0.145874-0.3018036-0.0814819-0.4150696-0.0566406-0.4585114
				c0.2443848-0.4298248,1.4244385-0.7502441,2.1824341-0.8169556c0.431366-0.0372467,0.7540894-0.4143066,0.7246094-0.8456573
				l-0.364624-5.2943115c-0.0310364-0.4383392-0.4135437-0.7595367-0.847229-0.7385864
				c-0.4383545,0.0302505-0.7680664,0.4096375-0.7385864,0.8472137l0.314209,4.5595703
				c-0.8549805,0.1691437-2.1195679,0.5694733-2.6510315,1.5020294c-0.2296448,0.4026489-0.4150696,1.0652161,0.0062256,1.9372559
				C384.6012878,137.9420776,385.9163208,138.3392944,387.0963745,138.3392944z"/>
		</g>
		<path class="st5" d="M387.3783875,143.2049103c0,0,6.019928,3.498642,9.3720398-3.8734283L387.3783875,143.2049103z"/>
	</g>
</g>
</svg>
