<?xml version="1.0" encoding="utf-8"?>
<!-- Generator: Adobe Illustrator 25.2.3, SVG Export Plug-In . SVG Version: 6.00 Build 0)  -->
<svg version="1.1" xmlns="http://www.w3.org/2000/svg" xmlns:xlink="http://www.w3.org/1999/xlink" x="0px" y="0px"
	 viewBox="0 0 600 600" style="enable-background:new 0 0 600 600;" xml:space="preserve">
<style type="text/css">
	.st0{fill:#6B81BE;}
	.st1{fill:#E9F3FF;}
	.st2{fill:#404B7C;}
	.st3{fill:#9AB3DA;}
	.st4{fill:none;stroke:#404B7C;stroke-width:3;stroke-linecap:round;stroke-linejoin:round;stroke-miterlimit:10;}
	.st5{fill:none;stroke:#6B81BE;stroke-width:2;stroke-linecap:round;stroke-linejoin:round;stroke-miterlimit:10;}
	.st6{fill:#F68D88;}
	.st7{fill:#ECBDBB;}
	.st8{fill:none;stroke:#6B81BE;stroke-width:2;stroke-linecap:round;stroke-linejoin:round;}
	.st9{fill:none;stroke:#6B81BE;stroke-width:2;stroke-linecap:round;stroke-linejoin:round;stroke-dasharray:8.8879213,8.8879213;}
	
		.st10{fill:none;stroke:#6B81BE;stroke-width:2;stroke-linecap:round;stroke-linejoin:round;stroke-miterlimit:10;stroke-dasharray:9;}
	.st11{fill:none;stroke:#ECBDBB;stroke-linecap:round;stroke-linejoin:round;stroke-miterlimit:10;}
	.st12{fill:none;stroke:#404B7C;stroke-linecap:round;stroke-linejoin:round;stroke-miterlimit:10;}
	.st13{fill:#EEEEEE;}
	.st14{fill:#FFFFFF;}
</style>
<g id="PHONE">
	<g>
		<g>
			<path class="st0" d="M465.5342102,431.1664124l-165.3768311-42.5020142
				c-5.6194763-1.4442139-9.0042419-7.1705017-7.5599976-12.7900085l71.2803955-277.3545837
				c1.4442139-5.6194992,7.1705017-9.0042419,12.7900085-7.5600204l165.3768311,42.5020142
				c5.6195068,1.4442139,9.0042114,7.1705017,7.5599976,12.7900085l-71.2803955,277.3545532
				C476.8800049,429.2258911,471.153717,432.6106262,465.5342102,431.1664124z"/>
			<path class="st1" d="M540.8845825,144.0058746l-71.2809753,277.3568115
				c-0.2065735,0.803833-1.0247803,1.2956543-1.8286133,1.0890808l-165.375824-42.50177
				c-0.803894-0.206604-1.2932434-1.0344543-1.0866394-1.8382874l71.2809753-277.3568115
				c0.206604-0.803894,1.0319519-1.2835312,1.8358459-1.0769348l49.5497742,12.7343445
				c-1.2345886,4.8038483,1.6582642,9.6979752,6.4620972,10.9325714l48.8815613,12.5626068
				c2.4019165,0.6172943,4.8325195,0.1991272,6.8047485-0.9666443c1.9722595-1.1657715,3.5105286-3.0935516,4.1278076-5.4954681
				l49.5498352,12.7343445C540.6090088,142.3863068,541.0911865,143.2019806,540.8845825,144.0058746z"/>
			<path class="st1" d="M534.0800171,219.9044189l-3.1932373-0.8206787l11.7555542-45.741272l3.1932373,0.8206635
				c1.8588867,0.4777527,2.9785767,2.3719788,2.5008545,4.2309113l-10.0255127,39.0095367
				C537.8331909,219.2624969,535.9389038,220.3821564,534.0800171,219.9044189z"/>
			<path class="st1" d="M525.6071167,252.8726654l-3.1932373-0.8206787l6.2400513-24.2802734l3.1932373,0.8206635
				c1.8589478,0.4777527,2.9786377,2.371994,2.5008545,4.2309113l-4.5100098,17.5485382
				C529.3602905,252.2307434,527.4660645,253.3504028,525.6071167,252.8726654z"/>
			<path class="st2" d="M434.2451782,115.0498734L434.2451782,115.0498734
				c0.4654846-1.8112564,2.3111572-2.9022064,4.122406-2.4367142l39.1821594,10.0698547
				c1.8112488,0.4654922,2.9021912,2.3111572,2.4367065,4.1224136v0.0000076
				c-0.4654846,1.8112488-2.3111572,2.9022064-4.122406,2.4367065l-39.1821594-10.0698547
				C434.870636,118.7067947,433.7796631,116.8611298,434.2451782,115.0498734z"/>
		</g>
		<circle class="st3" cx="430.6940308" cy="223.7224274" r="76.6371078"/>
		<g>
			<path class="st0" d="M456.7276001,280.703125l-76.3147583-19.6129761
				c-2.8220825-0.7252808-4.5218811-3.6009827-3.7966003-6.4230652l13.2250366-51.4591522
				c0.7252808-2.8220825,3.6009827-4.5218811,6.4230652-3.7966003l76.3147888,19.6129761
				c2.8220825,0.7252808,4.5218811,3.6009827,3.7966003,6.4230652l-13.2250671,51.4591522
				C462.425415,279.7286072,459.5496826,281.4284058,456.7276001,280.703125z"/>
			<g>
				<path class="st1" d="M477.0404053,180.8651581l-11.5432434,44.9152374l-31.4550476,16.2106476l-0.4276123-0.6261597
					c-3.0793152-4.570282-9.0841675-6.1135406-13.9855042-3.5942841l-0.6765442,0.3423767l-19.7412415-29.3681335
					l11.5432739-44.9152374c0.507782-1.975769,2.516571-3.163147,4.482666-2.6578674l59.1575623,15.2035675
					C476.3608093,176.8805847,477.5481873,178.889389,477.0404053,180.8651581z"/>
				<g>
					<path class="st2" d="M452.5155945,190.0978241l-34.2588501-8.8045502
						c-1.6666565-0.4283447-2.6705322-2.1266632-2.2421875-3.793335l0,0
						c0.4283447-1.6666718,2.1266785-2.6705322,3.793335-2.2421875l34.2588196,8.8045502
						c1.6666565,0.4283295,2.6705322,2.1266632,2.2421875,3.7933197v0.0000153
						C455.8805847,189.5222931,454.182251,190.5261536,452.5155945,190.0978241z"/>
					<path class="st2" d="M457.8103027,209.0349731l-43.7908325-11.2542877
						c-1.6666565-0.4283447-2.6705322-2.1266632-2.2421875-3.793335l0,0
						c0.4283142-1.6666565,2.1266479-2.6705322,3.793335-2.2421875l43.7908325,11.2542877
						c1.6666565,0.4283295,2.6705017,2.1266632,2.2421875,3.7933197v0.0000153
						C461.175293,208.4594421,459.4769592,209.4633026,457.8103027,209.0349731z"/>
					<path class="st2" d="M454.8153076,220.6885376l-43.7908325-11.2542877
						c-1.6666565-0.4283295-2.6705017-2.1266632-2.2421875-3.793335l0,0
						c0.4283447-1.6666565,2.1266785-2.6705322,3.793335-2.2421875l43.7908325,11.2542877
						c1.6666565,0.4283295,2.6705322,2.1266632,2.2421875,3.7933197v0.0000153
						C458.1802979,220.1130066,456.4819946,221.1168671,454.8153076,220.6885376z"/>
				</g>
			</g>
			<g>
				<path class="st4" d="M457.3825684,276.7273254l-23.7714539-35.3608246
					c-3.0731812-4.5714417-9.083313-6.1160583-13.9798279-3.5928192l-37.8752441,19.5175476"/>
				<line class="st4" x1="418.9588928" y1="238.1201935" x2="395.609436" y2="203.3871307"/>
				<line class="st4" x1="471.2359619" y1="222.8232269" x2="434.0331116" y2="241.994278"/>
			</g>
		</g>
		<g>
			<path class="st2" d="M438.6532593,346.4512939l-74.1066284-19.0454712
				c-3.4318542-0.8819885-5.4989014-4.3790588-4.6169128-7.8108826l1.5969849-6.2139282
				c0.8819885-3.4318542,4.3790283-5.4989014,7.8108826-4.6169128l74.1066284,19.0454712
				c3.4318542,0.8819885,5.4989014,4.3790283,4.6169128,7.8108826l-1.5969849,6.2139282
				C445.5821533,345.2662048,442.0851135,347.3332825,438.6532593,346.4512939z"/>
			<g>
				<path class="st2" d="M446.3768921,377.5097656l-103.5718384-26.6180725
					c-3.4318542-0.8819885-5.4989014-4.3790588-4.6169128-7.8108826V343.08078
					c0.8819885-3.4318542,4.3790283-5.4989014,7.8108826-4.6169128l103.5718384,26.618042
					c3.4318542,0.8819885,5.4989014,4.3790588,4.6169128,7.8109131l0,0
					C453.3057861,376.3246765,449.8087463,378.3917542,446.3768921,377.5097656z"/>
				<path class="st2" d="M441.4972229,396.4967041l-103.5718384-26.6180725
					c-3.4318237-0.8819885-5.4989014-4.3790283-4.6169128-7.8108826v-0.0000305
					c0.8819885-3.4318237,4.3790283-5.4989014,7.8108826-4.6169128l103.5718384,26.6180725
					c3.4318542,0.8819885,5.4989014,4.3790283,4.6169128,7.8108826l0,0
					C448.4261169,395.311615,444.9290771,397.3786926,441.4972229,396.4967041z"/>
			</g>
		</g>
	</g>
</g>
<g id="ORNAMENT_6">
	<g>
		<line class="st5" x1="235.4681091" y1="26.3762016" x2="235.4681091" y2="33.5049133"/>
		<line class="st5" x1="235.4681091" y1="47.4059029" x2="235.4681091" y2="40.2771912"/>
		<line class="st5" x1="245.9829712" y1="36.8910522" x2="238.854248" y2="36.8910522"/>
		<line class="st5" x1="224.9532623" y1="36.8910522" x2="232.0819702" y2="36.8910522"/>
	</g>
</g>
<g id="ORNAMENT_5">
	<g>
		<line class="st5" x1="60.5770226" y1="343.1880798" x2="60.5770226" y2="350.316803"/>
		<line class="st5" x1="60.5770226" y1="364.2177734" x2="60.5770226" y2="357.0890808"/>
		<line class="st5" x1="71.0918732" y1="353.7029419" x2="63.9631615" y2="353.7029419"/>
		<line class="st5" x1="50.0621719" y1="353.7029419" x2="57.1908875" y2="353.7029419"/>
	</g>
</g>
<g id="ORNAMENT_4">
	<g>
		<line class="st5" x1="258.2799988" y1="304.2771912" x2="258.2799988" y2="308.7880249"/>
		<line class="st5" x1="258.2799988" y1="317.584137" x2="258.2799988" y2="313.0733032"/>
		<line class="st5" x1="264.9334717" y1="310.9306641" x2="260.4226379" y2="310.9306641"/>
		<line class="st5" x1="251.6265259" y1="310.9306641" x2="256.1373596" y2="310.9306641"/>
	</g>
</g>
<g id="ORNAMENT_3">
	<circle class="st5" cx="76.7948456" cy="129.3861084" r="5.2277226"/>
</g>
<g id="ORNAMENT_2">
	<circle class="st5" cx="79.8839569" cy="411.4454956" r="2.6138613"/>
</g>
<g id="ORNAMENT_1">
	<circle class="st5" cx="321.0250244" cy="524.9923096" r="7.3663368"/>
</g>
<g id="PAPER_PLANE_2">
	<g>
		<polygon class="st6" points="467.0304565,39.0296631 423.5370483,71.1682739 426.7050781,54.8717651 		"/>
		<polygon class="st7" points="415.7037354,36.8910522 423.5370483,49.6939087 467.0304565,39.0296631 		"/>
		<polygon class="st7" points="467.0304565,39.0296631 426.7050781,54.8717651 437.8027344,73.0098267 		"/>
		<polygon class="st6" points="467.0350342,39.0346069 426.7050171,54.8745728 423.5350342,71.1646118 423.5350342,49.6945801 		"/>
	</g>
</g>
<g id="PAPER_PLANE_1">
	<g>
		<polygon class="st6" points="531.7603149,426.6685791 517.6397095,478.8717651 509.9993591,464.132782 		"/>
		<polygon class="st7" points="490.2087097,456.8756409 504.300293,462.0429688 531.7603149,426.6685791 		"/>
		<polygon class="st7" points="531.7603149,426.6685791 509.9993591,464.132782 529.9631958,471.4533997 		"/>
		<polygon class="st6" points="531.7669678,426.6696167 510.0010376,464.1350403 517.6358643,478.8701477 504.2991333,462.0447388 
					"/>
	</g>
</g>
<g id="LETTER_2">
	<g>
		<path class="st0" d="M383.5498962,448.3249817l-36.6940613,45.5036926
			c-2.100708,2.6050415-5.9154663,3.0138855-8.5205078,0.9131775l-65.4809265-52.8036499
			c-2.6050415-2.1006775-3.0138855-5.9154358-0.9131775-8.5204773l36.6940613-45.5036926
			c2.100708-2.6050415,5.9154663-3.0138855,8.5205078-0.913208l65.480896,52.8036499
			C385.2417297,441.9051819,385.6505737,445.7199402,383.5498962,448.3249817z"/>
		<g>
			<path class="st3" d="M314.9086304,399.4318542l-30.3817444,37.6759033
				c-1.2076416,1.4975281-3.4006042,1.7325745-4.8981628,0.5249634l0,0
				c-1.4975586-1.2076416-1.732605-3.4006042-0.5249634-4.8981628l30.3817444-37.6759033
				c1.2076111-1.4975586,3.4006042-1.7325745,4.8981628-0.5249634l0,0
				C315.8812256,395.7413025,316.1162415,397.9342957,314.9086304,399.4318542z"/>
			<path class="st3" d="M341.057251,420.5180359l-30.3817444,37.6759033
				c-1.2076111,1.4975586-3.4006042,1.7325745-4.8981628,0.5249634l-16.3450012-13.1805725
				c-1.4975281-1.2076111-1.7325745-3.4006042-0.5249634-4.8981628l30.3817749-37.6758728
				c1.2076111-1.4975586,3.4006042-1.732605,4.8981323-0.5249634l16.3450012,13.180542
				C342.0298462,416.8275146,342.2648926,419.0204773,341.057251,420.5180359z"/>
			<path class="st3" d="M350.238739,427.921936l-30.3817749,37.6759033
				c-1.2076111,1.4975586-3.4006042,1.732605-4.8981323,0.5249634h-0.0000305
				c-1.4975281-1.2076111-1.7325745-3.4006042-0.5249634-4.8981628l30.3817749-37.6758728
				c1.2076111-1.4975586,3.4005737-1.732605,4.8981323-0.5249634l0,0
				C351.2113037,424.2314148,351.4463501,426.424408,350.238739,427.921936z"/>
			<path class="st3" d="M376.3873596,449.0081482l-30.3817444,37.6759033
				c-1.2076416,1.4975281-3.4006042,1.7325745-4.8981628,0.5249634l-16.3450012-13.1805725
				c-1.4975586-1.2076416-1.7325745-3.4006042-0.5249634-4.8981628l30.3817444-37.6759033
				c1.2076416-1.4975586,3.4006042-1.7325745,4.8981628-0.5249634l16.3450012,13.1805725
				C377.3599548,445.3175964,377.5949707,447.5105896,376.3873596,449.0081482z"/>
		</g>
	</g>
</g>
<g id="LETTER_1">
	<g>
		<path class="st1" d="M393.2010498,446.9485474l-50.0527039,30.1954651
			c-2.865448,1.7286682-6.5897217,0.8070984-8.3183899-2.0583496l-43.4520264-72.0270691
			c-1.7286682-2.865448-0.8070984-6.5897522,2.0583801-8.3183899l50.0526733-30.1954956
			c2.8654785-1.7286682,6.5897522-0.8070984,8.3184204,2.0583801l43.4520264,72.0270386
			C396.9880981,441.4956055,396.0665283,445.2198792,393.2010498,446.9485474z"/>
		<g>
			<path class="st3" d="M345.4410706,377.5140686l-41.4423523,25.0010986
				c-1.6472473,0.9937439-3.7882385,0.4639893-4.7819824-1.1832886l0,0
				c-0.9937439-1.6472778-0.4639893-3.7882385,1.1832886-4.7819824l41.4423523-25.0010986
				c1.6472778-0.9937439,3.7882385-0.4639587,4.7819824,1.1832886l0,0
				C347.6181335,374.379364,347.0883484,376.5203247,345.4410706,377.5140686z"/>
			<path class="st3" d="M362.7928772,406.2767944l-41.4423828,25.0010986
				c-1.6472473,0.9937439-3.788208,0.4639587-4.7819519-1.1832886l-10.846283-17.9790344
				c-0.9937439-1.6472473-0.4639587-3.788208,1.1832886-4.7819519l41.4423828-25.0010986
				c1.6472473-0.9937439,3.788208-0.4639893,4.7819824,1.1832886l10.8462524,17.9790039
				C364.9699097,403.1420898,364.4401245,405.2830505,362.7928772,406.2767944z"/>
			<path class="st3" d="M368.8855286,416.3761292l-41.4423523,25.0010986
				c-1.6472778,0.9937439-3.7882385,0.4639587-4.7819824-1.1832886l0,0
				c-0.9937439-1.6472778-0.4639893-3.7882385,1.1832886-4.7819824l41.4423523-25.0010986
				c1.6472778-0.9937439,3.7882385-0.4639893,4.7819824,1.1832886l0,0
				C371.0625916,413.2414246,370.5328064,415.3823853,368.8855286,416.3761292z"/>
			<path class="st3" d="M386.2373352,445.138855l-41.4423828,25.0010681
				c-1.6472473,0.9937744-3.788208,0.4639893-4.7819824-1.1832886l-10.8462524-17.9790039
				c-0.9937439-1.6472473-0.4639587-3.7882385,1.1832886-4.7819824l41.4423828-25.0010681
				c1.6472473-0.9937744,3.788208-0.4639893,4.7819519,1.1832886l10.846283,17.9790039
				C388.4143677,442.0041199,387.8845825,444.1450806,386.2373352,445.138855z"/>
		</g>
	</g>
</g>
<g id="LINE_2">
	<g>
		<g>
			<path class="st8" d="M365.0737915,466.1721191c0,0,0.7684326,1.4859619,2.371521,3.8175354"/>
			<path class="st9" d="M372.9785156,476.9354553c7.9139099,8.6754761,22.0455627,19.6604309,43.6210632,21.0888672
				c36.2963867,2.4030762,51.8282471-23.5970764,45.8999329-43.4940796
				c-6.4158325-21.5332947-38.732666-27.8616638-51.2732849-6.2286987
				c-15.0341492,25.9344177,10.1954651,56.483551,43.4406433,53.5325012
				c19.8919983-1.7657471,31.6936646-9.0218201,37.9649658-14.5658875"/>
			<path class="st8" d="M495.8048706,484.1459961c1.9232483-2.1219482,2.7545471-3.5496521,2.7545471-3.5496521"/>
		</g>
	</g>
</g>
<g id="LINE">
	<path class="st10" d="M384.8149109,168.532486c0,0-43.6372986-7.6212311-41.4962463-47.6048355
		c2.0507202-38.2970505,52.2549133-54.5700073,63.9655151-22.0994186
		c11.7105713,32.4705963-39.0528564,47.670639-47.894989,12.5990982
		c-8.2901917-32.882309,22.9017639-54.1782188,59.5697021-52.1584167"/>
</g>
<g id="LEFT_ARM">
	<g>
		<g>
			<g>
				<path class="st2" d="M256.6376038,102.0956345h-9.3980713c0,0,0.1746826,17.0874023,6.9577637,31.5100021l9.5253906-3.0505981
					C257.4471741,117.2220993,256.6376038,102.0956345,256.6376038,102.0956345z"/>
				<path class="st0" d="M252.5710144,102.0956345h-9.3980103c0,0,0.1845093,17.9938354,7.5056763,32.6368942l9.5215454-3.0493774
					C253.4247742,118.0912399,252.5710144,102.0956345,252.5710144,102.0956345z"/>
			</g>
			<g>
				<path class="st0" d="M280.9537659,53.9463348l12.9405823,59.4887314
					c-3.5873108-1.6245804-7.0445557-2.9807053-10.3585815-4.1018829
					c-20.4830017-6.9857788-35.6702271-5.3399811-43.0935669-3.6637878c-2.3897858,0.5402756-3.9692993,1.088562-4.6711273,1.343605
					c-0.0195618,0.0042496-0.0370026,0.0182266-0.0467834,0.0203552c-0.2357788,0.0922699-0.3585052,0.139389-0.3585052,0.139389
					c-2.1497345,0.4676361-5.0198975-4.3523788-6.4142914-10.7624741
					c-1.3943939-6.4101486-0.7858429-11.9868851,1.3638916-12.4545135c0,0,0.1312256-0.0081253,0.3840179-0.0221405
					c0.0097809-0.002121,0.0314636,0.0033417,0.0510254-0.0009155c0.744339-0.0595398,2.4088898-0.2169418,4.8071594-0.7182083
					c7.4509583-1.5491638,21.9397278-6.3587875,37.6796875-21.2241516
					C275.7839661,59.5840263,278.365448,56.9143028,280.9537659,53.9463348z"/>
				<path class="st6" d="M240.4421997,105.6693954c-2.3897858,0.5402756-3.9692993,1.088562-4.6711273,1.343605
					c-0.0195618,0.0042496-0.0370026,0.0182266-0.0467834,0.0203552c-0.2357788,0.0922699-0.3585052,0.139389-0.3585052,0.139389
					c-2.1497345,0.4676361-5.0198975-4.3523788-6.4142914-10.7624741
					c-1.3943939-6.4101486-0.7858429-11.9868851,1.3638916-12.4545135c0,0,0.1312256-0.0081253,0.3840179-0.0221405
					c0.0097809-0.002121,0.0314636,0.0033417,0.0510254-0.0009155c0.744339-0.0595398,2.4088898-0.2169418,4.8071594-0.7182083
					c-1.3763275,1.6707535-1.6212616,6.4725647-0.4500732,11.8566589
					C236.278717,100.4551926,238.4962006,104.721344,240.4421997,105.6693954z"/>
				<path class="st6" d="M280.9537659,53.9463348l12.9405823,59.4887314
					c-3.5873108-1.6245804-7.0445557-2.9807053-10.3585815-4.1018829c-2.4829712-3.6045837-4.8624268-8.7565765-6.776825-14.8283768
					c-0.8054199-2.5265427-1.5233765-5.215416-2.1355591-8.029541c-0.6121521-2.8141937-1.0760498-5.5583267-1.3929138-8.1911545
					c-0.7885132-6.3064651-0.7544556-11.9834747,0.0068054-16.2937698
					C275.7839661,59.5840263,278.365448,56.9143028,280.9537659,53.9463348z"/>
				<path class="st2" d="M299.9413452,80.9678497c3.6687622,16.8655243,2.0694275,31.5306549-3.5785217,32.7592545
					c-4.7000732,1.0224075-10.7236023-7.6146393-14.7181396-20.2850952
					c-0.8054199-2.5265427-1.5233765-5.2154083-2.1355591-8.029541c-0.6121521-2.8141937-1.0760498-5.5583267-1.3929138-8.1911545
					c-1.6297913-13.1848526,0.2615967-23.5435638,4.9616699-24.5659752
					C288.7258301,51.4267426,296.2725525,64.1022568,299.9413452,80.9678497z"/>
				<path class="st1" d="M288.143158,75.9407349l3.1543884,14.5009079c0,0-5.2864075,0.9145279-9.6528625,3.0003662
					c-0.8054199-2.5265427-1.5233765-5.2154083-2.1355591-8.029541c-0.6121521-2.8141937-1.0760498-5.5583267-1.3929138-8.1911545
					C282.9545593,77.3048401,288.143158,75.9407349,288.143158,75.9407349z"/>
				
					<ellipse transform="matrix(0.9771482 -0.2125591 0.2125591 0.9771482 -11.0623398 63.4847488)" class="st0" cx="289.7249451" cy="83.1913223" rx="2.4820414" ry="7.4179187"/>
			</g>
		</g>
		<path class="st6" d="M196.7094116,121.1370926c17.4319763,1.8168564,43.9864197,35.9158554,43.9864197,35.9158554
			s4.0990143-6.0594025,13.6039581-5.8217773c9.5049591,0.2376251,19.9604034,6.4158478,22.0990143,33.267334
			s-10.217804,37.3069305-27.3267365,35.6435547c-17.108902-1.6633606-47.4365082-35.6897736-59.1683044-57.9801941
			C170.8938599,126.0430527,196.7094116,121.1370926,196.7094116,121.1370926z"/>
		<path class="st11" d="M240.6958313,157.052948c0,0-3.0296936,5.8217926-1.366333,21.0297089"/>
		<path class="st0" d="M242.1533203,145.5281982c-0.3883972,0.1135864-0.068985,13.0693054-0.068985,13.0693054
			s4.5197296,3.0891113,14.8208771,2.0198059c8.2775269-0.8592377,9.9711914-2.4950409,9.9711914-2.4950409l-1.3659058-12.4752502
			C265.510498,145.6470184,257.9979553,140.8945465,242.1533203,145.5281982z"/>
		<g>
			<path class="st7" d="M244.4493408,147.1507263l-2.7465515-16.5810699c0,0-3.2266541-18.1465302-2.8377228-20.6372299
				c0.3889465-2.4906998,9.4091797-8.0895386,12.062439-8.2445068c2.6532745-0.1549683,2.6256256,4.6951675-1.5457001,9.1363144
				c0,0,7.9360962-2.3679428,11.6783752-1.0124512c3.7422791,1.3554993,2.8544006,5.1190491,1.8778076,7.197113
				c0,0,3.4171753,2.4432983,0.539978,6.915741c0,0,3.134552,2.5958328,0.5724487,6.8069611
				c0,0,2.776947,3.7924194-3.3211365,6.3542175l1.3716125,9.3150177
				C262.1008911,146.4008331,252.9928589,150.1618652,244.4493408,147.1507263z"/>
			<path class="st12" d="M248.8344574,112.7955322c0,0-3.4752502,2.9405899,0.3564301,5.7920761
				c0,0-2.4134827,4.2904205,1.6001892,6.3333282c0,0-2.4021759,4.8052902,2.5879211,6.1419144
				c0,0-2.6732635,4.009903,2.1386261,5.6138611"/>
		</g>
	</g>
</g>
<g id="LEFT_LEG">
	<g>
		<g>
			<path class="st7" d="M190.5753479,516.3468628c0,0,11.679306,1.4020996,11.679306,1.0515747
				c0-0.2523193,2.0610046-9.7443848,3.1687012-14.8340759c0.4065704-1.8787231,0.6869965-3.1546631,0.6869965-3.1546631
				l-14.2451324-1.4020691l-0.6869965,9.786438L190.5753479,516.3468628z"/>
			<path class="st2" d="M191.8652191,498.0076294l-0.6869965,9.786438
				c7.3328247-1.0515442,11.9457092-3.603241,14.2451324-5.2297058c0.4065704-1.8787231,0.6869965-3.1546631,0.6869965-3.1546631
				L191.8652191,498.0076294z"/>
		</g>
		<g>
			<path class="st2" d="M205.0634155,512.7247925c0,0,15.5396881,16.357605,17.8764801,16.7080688
				c2.336792,0.3505249,12.9691925,2.5704956,12.9691925,2.5704956l4.2062225,17.175415
				c0,0-40.4264832,0.7009888-61.3407898-3.7388916c0.2337036-11.4502563,3.1546631-24.7698975,8.76297-33.6497498
				C192.7734375,513.6019287,198.5821533,513.9956055,205.0634155,512.7247925z"/>
			<g>
				<path class="st3" d="M217.4479218,535.218811c0.2231598,0,0.440033-0.1159668,0.5598145-0.3227539
					c0.1777802-0.3088989,0.0718689-0.7035522-0.2370453-0.8826294
					c-13.4836426-7.7694092-20.1485596-18.8208618-20.2141266-18.930542c-0.1815643-0.30896-0.5787354-0.4085693-0.8838654-0.225708
					c-0.3076477,0.1815796-0.4085083,0.5774536-0.2256927,0.8838501
					c0.0668335,0.1147461,6.9057465,11.4536743,20.6781311,19.3920288
					C217.2272644,535.1911011,217.3382263,535.218811,217.4479218,535.218811z"/>
			</g>
			<path class="st6" d="M226.5619202,528.6149902c0,0,24.0689545-0.3505249,18.1101379,29.0930786
				c0,0-41.0106812,0.1168213-67.5332642-4.9072876l0.3505249-8.9966431c0,0,22.0826721,3.1546631,37.1549683,3.0378418
				C214.6442871,546.84198,217.7989502,533.1717529,226.5619202,528.6149902z"/>
			<ellipse class="st13" cx="191.3347931" cy="531.0102539" rx="6.8351135" ry="8.2371883"/>
		</g>
		<path class="st3" d="M214.410614,480.2434387c0,0-0.8178864,12.6186829-4.9072723,21.9658508c0,0-8.0619202,1.168396-15.3059692,0
			c-7.2440643-1.168396-10.515564-3.8557129-10.515564-3.8557129l0.701004-19.3953247
			C194.5162811,475.655365,204.5327606,475.863678,214.410614,480.2434387z"/>
		<path class="st0" d="M174.4514771,322.5100403c0,0,0.7570953,4.8370972,1.87883,12.2962341
			c0.8131409,5.2998657,1.8086395,11.9457092,2.8742371,19.1101074c2.3273926,15.8014221,4.9492645,34.1968079,6.4635315,46.7593384
			c3.1546783,26.2888794,3.505188,81.3203125,3.505188,81.3203125c8.76297,4.9072571,20.680603,2.1031189,20.680603,2.1031189
			s12.9691925-73.2583923,16.8248901-107.9597473c3.8557129-34.701355,7.3609009-111.1144104,7.3609009-111.1144104
			c-1.0515594-28.3920135-54.6809082-24.8868256-57.1345367,14.020752L174.4514771,322.5100403z"/>
		<path class="st2" d="M176.330307,334.8062744c0.8131409,5.2998657,1.8086395,11.9457092,2.8742371,19.1101074
			c9.7023315-10.1650391,13.053299-27.2843018,13.2776031-28.5320129
			C191.332428,329.8990173,184.0556641,332.899292,176.330307,334.8062744z"/>
		<path class="st3" d="M213.0259705,378.2567139c11.6578827,1.5718384,11.4124603,34.2373352-6.3978882,34.4102478
			C188.817749,412.8399048,197.6364594,376.1817322,213.0259705,378.2567139z"/>
		<g>
			<path class="st3" d="M193.3806,479.8380127c0.3253021,0,0.6052094-0.2458801,0.6405182-0.5762024
				c6.2399902-57.669281-6.5804443-146.8121643-6.7103119-147.7061157
				c-0.0504303-0.3543091-0.3807831-0.5913696-0.7325592-0.5459595c-0.3530426,0.0516968-0.5963898,0.3795166-0.5459442,0.7325439
				c0.1298676,0.891449,12.927597,89.8742065,6.705246,147.3808289c-0.0378265,0.3543091,0.2181396,0.6732788,0.5724335,0.7111206
				C193.3339386,479.8367615,193.3566437,479.8380127,193.3806,479.8380127z"/>
		</g>
		<g>
			<path class="st3" d="M180.4945984,334.3724365c0.0327759,0,0.0668182-0.0025024,0.0996094-0.0075684
				c0.4286804-0.066803,10.5130615-1.7235718,12.530426-8.8751831c1.922821-6.8162231,4.807663-40.910553,4.9287109-42.3586426
				c0.0302582-0.3555603-0.2332611-0.6676331-0.5888214-0.6972656c-0.3467407-0.0365601-0.6669922,0.2332764-0.6972504,0.5888367
				c-0.0302582,0.3536682-2.9958038,35.4188538-4.885849,42.1165466c-1.4865417,5.2729187-8.3544617,7.2600403-10.6996613,7.790863
				c0.2698212-5.4128723,1.7172852-35.7441711,0.9242096-47.9669495c-0.0239563-0.3568115-0.360611-0.6184387-0.6859131-0.6026917
				c-0.3555603,0.0233154-0.6253815,0.3303528-0.6026917,0.6859131c0.8636932,13.3033447-0.9494171,48.2947693-0.9670715,48.6465454
				c-0.0100861,0.1941833,0.0668182,0.3833008,0.2118225,0.5131836
				C180.1819,334.3144531,180.3357239,334.3724365,180.4945984,334.3724365z"/>
		</g>
		<g>
			<path class="st3" d="M229.3101044,298.5450745c0.2080383,0,0.3341217-0.0176697,0.3542938-0.0201721
				c0.3530426-0.052948,0.5976562-0.3807983,0.5459595-0.7325745c-0.0529633-0.3530273-0.3833008-0.5925903-0.7287903-0.545929
				c-0.0806885,0.0075378-1.6201935,0.1752319-3.3097534-1.4260559c-2.4876862-2.3577881-5.2136688-8.4301147-4.0788879-23.9714966
				c0.0252228-0.3555603-0.2420807-0.6651001-0.597641-0.6909485c-0.3265686-0.0245667-0.6644745,0.2408447-0.6909637,0.596405
				c-1.1776428,16.1314392,1.8169098,22.530304,4.5365906,25.0583496
				C227.0001984,298.3534241,228.6128387,298.5450745,229.3101044,298.5450745z"/>
		</g>
	</g>
</g>
<g id="RIGHT_LEG">
	<g>
		<g>
			<polygon class="st7" points="113.4612427,523.5254517 126.0799103,523.8900146 129.0944061,510.6964722 130.2861328,505.4807739 
				114.1622772,505.2984924 113.7836914,515.0009155 			"/>
			<path class="st2" d="M113.7836914,515.0009155c5.6644363-0.4908447,10.8099365-2.1311646,15.3107147-4.3044434
				l1.1917267-5.2156982l-16.1238556-0.1822815L113.7836914,515.0009155z"/>
		</g>
		<g>
			<path class="st2" d="M130.0232391,519.4138794c0,0-9.8145142-4.7319946-18.5774841-1.1391602
				c0,0-4.9072571,8.7629395-6.5722198,24.0981445c0,0,6.1340714,19.3661499,19.5414124,20.855896
				c13.4073334,1.4896851,24.0981598-1.7526245,24.0981598-1.7526245s-8.9090118-20.9143066-10.3987274-24.857605
				C136.6246796,532.6751709,130.0232391,519.4138794,130.0232391,519.4138794z"/>
			<g>
				<path class="st3" d="M124.9032211,546.5905151c3.0701981,0,9.2585068-0.3643799,11.1636581-3.1899414
					c0.7489624-1.1095581,0.7691345-2.4423218,0.0617828-3.9591064c-3.2177124-6.8969116-6.8300781-17.5864868-6.8666382-17.6924438
					c-0.1134796-0.3378906-0.4803925-0.5181885-0.8170471-0.4060059c-0.3379059,0.1135254-0.5194702,0.4804077-0.4059906,0.8170776
					c0.0365601,0.1083984,3.6716156,10.8648071,6.9196014,17.8273315c0.5093842,1.0931396,0.5220032,1.9732056,0.0378265,2.6906738
					c-1.6302948,2.4170532-8.3683395,2.6982422-11.2947998,2.6011353c-0.9040375-2.0488892-5.37883-12.5493774-7.0318222-23.1897583
					c-0.0542145-0.3518066-0.3883438-0.5925903-0.7376022-0.5383911c-0.3517761,0.0541992-0.5926056,0.3845825-0.5383835,0.7376099
					c1.8622894,11.9832153,7.2411194,23.7709961,7.2953415,23.8882446c0.0996094,0.2181396,0.3126907,0.3618774,0.5522537,0.3745117
					C123.4670944,546.5640259,124.0710526,546.5905151,124.9032211,546.5905151z"/>
			</g>
			
				<ellipse transform="matrix(0.2074159 -0.9782528 0.9782528 0.2074159 -433.4608459 530.4064941)" class="st13" cx="110.598671" cy="532.7044067" rx="7.1272125" ry="2.7457294"/>
			<path class="st6" d="M140.7432709,536.7937622c0,0,19.1616821,11.8008423,10.223465,35.4608154
				c0,0-23.4847488,3.505188-32.5982361-0.7010498c-9.1134872-4.2061768-15.0723038-21.9512329-15.0723038-21.9512329
				s0.3067093-5.2139282,1.4458923-8.4562378c0,0,5.1555481,9.7853394,12.1074982,15.8025513
				C116.8495865,556.9486084,118.134819,533.4638672,140.7432709,536.7937622z"/>
		</g>
		<g>
			<path class="st3" d="M140.2759094,487.4290771c0,0-14.7217789-6.7182922-30.8456345-0.3505249l-0.1752625,20.3300781
				c0,0,11.391861,4.0309753,23.4847488,0.5257874L140.2759094,487.4290771z"/>
			<path class="st0" d="M111.6946106,489.62323c11.2727356,3.7436218,22.2368774,1.1498108,25.1812134,0.3084106
				c6.1552887-18.5213318,31.8972778-96.6168213,38.9777374-129.5655823
				c8.0619202-37.5054932,9.4640045-80.2687683,9.4640045-80.2687683
				c-4.2062225-31.0138855-62.9251175-32.7805023-68.3511429,1.752594c0,0-0.3505173,116.7227173-0.7010345,133.1970825
				C115.9710083,428.8014221,112.74617,474.8174133,111.6946106,489.62323z"/>
			<g>
				<path class="st3" d="M179.2866821,342.4785156c0.3114319,0,0.5863037-0.2269592,0.636734-0.5446777
					c4.9980621-31.4421082,6.0294495-61.5149231,6.0395355-61.8150024c0.0113373-0.3568115-0.2685699-0.6549988-0.6241302-0.6663513
					c-0.0075684-0.0006409-0.0151367-0.0006409-0.0214386-0.0006409c-0.3467255,0-0.6342163,0.2755127-0.6455536,0.6241455
					c-0.0100861,0.2994385-1.0389557,30.2959595-6.0243988,61.6560974c-0.055481,0.3517761,0.184082,0.6821289,0.5371246,0.7388611
					C179.2185974,342.4760132,179.2526398,342.4785156,179.2866821,342.4785156z"/>
			</g>
			<path class="st3" d="M148.1625824,390.1601562c11.8158722,1.5931396,11.5671234,34.7013245-6.4845886,34.8765869
				S132.5644989,388.0570374,148.1625824,390.1601562z"/>
			<g>
				<g>
					<path class="st3" d="M117.3178787,485.0957947c0.3215179,0,0.5989075-0.239563,0.6392517-0.5673828
						c0.1513062-1.2268066,15.0925064-123.677887,16.479454-206.8739319
						c0.0063171-0.3561707-0.2786407-0.6499634-0.634201-0.6562805c-0.397171,0.0056763-0.6506042,0.2780457-0.6569214,0.6348572
						c-1.3856812,83.1292114-16.3193207,205.512207-16.4693604,206.7390137
						c-0.044136,0.3530273,0.2080383,0.6758118,0.5623398,0.718689
						C117.2649231,485.0945435,117.2913971,485.0957947,117.3178787,485.0957947z"/>
				</g>
				<g>
					<path class="st3" d="M137.4689636,318.7163391c4.4394989,0,11.5469666-5.3410034,12.4686584-9.3681946
						c1.3995514-6.1240234,2.1674194-28.7930298,2.2001953-29.7550659c0.0113525-0.3562012-0.2673035-0.6550293-0.624115-0.6663818
						c-0.0075684-0.0006409-0.0151367-0.0006409-0.0214386-0.0006409c-0.3467407,0-0.6342163,0.2748718-0.6455688,0.6241455
						c-0.0075531,0.2345276-0.7955933,23.5062256-2.1674194,29.5104675
						c-0.7867737,3.4396057-7.3873749,8.3645325-11.2103119,8.3645325c-0.3568268,0-0.6455688,0.2887573-0.6455688,0.6455688
						S137.1121368,318.7163391,137.4689636,318.7163391z"/>
				</g>
			</g>
		</g>
	</g>
</g>
<g id="BODY">
	<g>
		<path class="st6" d="M157.1008148,116.2298279c0,0,19.6290436,0.1752625,39.6085968,4.9072647
			c0,0,29.2683105,55.5571976,41.5364685,145.289978c0,0-13.3197174,18.5774841-55.3819427,25.2373352
			s-72.5573654-4.9072571-72.5573654-4.9072571s-7.010376-113.217514,1.4020767-145.4652252
			C111.7086487,141.2919159,133.6160583,118.6834564,157.1008148,116.2298279z"/>
		<path class="st11" d="M198.6179047,125.0014954c4.4112701,9.2501068,15.7153168,34.7637634,25.8816528,72.8298645"/>
		<g>
			<path class="st11" d="M232.5832977,260.1984863c-0.4236603,0.3410645-43.4341583,33.9726562-118.8765259,18.5655518"/>
		</g>
		<g>
			<path class="st7" d="M167.0739136,166.5063934c-0.7118988-0.3459015-1.2393494-0.9518127-1.4826813-1.7071228
				c-1.8248596-5.6712952-8.0834503-24.8892822-11.9755096-34.0610046
				c-0.1352539-0.3187714,0.0050812-0.6866913,0.3175201-0.8355255l8.5229645-4.0540543
				c0.1594849-0.0740433,0.3462372-0.0832214,0.5119781-0.0180588c0.1669769,0.0649338,0.2985077,0.1953201,0.3647919,0.3613663
				c0.0877533,0.2204285,8.8845825,22.2066422,13.0513916,34.8620071c0.4853821,1.4756012-0.2816162,3.0560608-1.744812,3.5987701
				l-5.2999878,1.9626312c-0.1620941,0.0597839-0.3281708,0.1049194-0.4931183,0.1351013
				C168.247406,166.8601379,167.6336975,166.7776031,167.0739136,166.5063934z M155.0442047,130.8043518
				c3.9239197,9.4228973,9.9835663,28.0299835,11.7768402,33.5987396c0.1338806,0.4164429,0.4245453,0.7509918,0.8171082,0.941925
				c0.3939209,0.19133,0.8400726,0.2128601,1.2528839,0.0591278l5.2999878-1.9626312
				c0.8091583-0.2993164,1.2339935-1.1717834,0.9673767-1.9843597
				c-3.7554474-11.4020538-11.2890778-30.4290314-12.7692108-34.1464844L155.0442047,130.8043518z"/>
		</g>
		<path class="st0" d="M154.0337677,109.3070831c3.8671722-0.6022644,8.8227692,0.5184708,11.4043732,1.2301941
			c1.043396,0.2876587,1.7797089,1.2136841,1.8416595,2.2942505l0.687088,11.9860077c0,0-4.2938538,6.7474823-12.6186676,7.1856384
			c-8.3248138,0.4381409-12.8815613-4.3814926-12.8815613-4.3814926l-2.5305939-11.426033
			c-0.2314758-1.0450974,0.2087708-2.1335144,1.1219788-2.6919708
			C143.0100403,112.3099594,147.0410156,110.3961182,154.0337677,109.3070831z"/>
		<g>
			<path class="st7" d="M147.994339,99.4960709l0.0700073,5.2437439l0.1684113,12.3242035
				c0.2663116,0.0561447,0.5326233,0.0981598,0.7991028,0.1402588c4.6828918,0.7430573,8.8189392-0.2103424,11.7213287-1.3460159
				l-1.6262817-6.4916153l-2.2855682-9.0854187L147.994339,99.4960709z"/>
			<path class="st2" d="M147.994339,99.4960709l0.0700073,5.2437439c2.1873169,1.8927689,5.6363678,3.7715836,11.062561,4.6268311
				l-2.2855682-9.0854187L147.994339,99.4960709z"/>
		</g>
		<g>
			<path class="st3" d="M152.3748627,118.1107788c3.5341949,0,6.5312653-0.8365784,8.614212-1.6511002
				c0.3605957-0.1443634,0.702301-0.2874756,1.0313721-0.4299469c2.2430725-0.9866257,3.5619354-1.9530792,3.6161499-1.9934235
				c0.2874756-0.2118301,0.3480072-0.6159363,0.1361847-0.9027786c-0.2105713-0.2855835-0.6140442-0.3479996-0.9027863-0.1361694
				c-0.0126038,0.0088196-1.2684174,0.9267273-3.3665009,1.849678c-0.3139496,0.1361771-0.6455536,0.2742386-0.9897766,0.4116745
				c-2.5797119,1.0099487-6.6472473,2.0564651-11.3805237,1.3081436c-0.2723541-0.0435028-0.5194855-0.081955-0.7666016-0.134285
				c-1.975769-0.3864517-3.9452362-1.0881195-5.8655396-2.0860901c-0.3126831-0.1639175-0.7048187-0.0428696-0.8699799,0.2748642
				c-0.1651764,0.3158493-0.0416107,0.7060852,0.2748566,0.8699951c2.0287323,1.0559692,4.1167145,1.7979889,6.2034454,2.2065048
				c0.2597351,0.0548477,0.5282898,0.0977173,0.7993774,0.1405869
				C150.1091003,118.0288239,151.2690887,118.1107788,152.3748627,118.1107788z"/>
		</g>
	</g>
</g>
<g id="HEAD">
	<g>
		<path class="st7" d="M155.1729584,64.4114914c13.3796539,1.2071838,16.9417419,32.0140305,15.0722961,36.804451
			c-1.8694305,4.7904282-20.7974396,2.4536362-23.8352661,0.9347229s-6.7766876-12.268158-7.8282471-19.3369446
			C137.5301819,75.7449265,139.6333008,63.0094147,155.1729584,64.4114914z"/>
		<path class="st2" d="M142.7879639,90.8756485l-0.0876312-4.381485c0,0,4.2938538-4.1185913,2.9794159-9.025856
			c0,0,17.7011871,7.273262,29.7064514-2.3659973c0,0-2.4536285-3.1546707-5.0825195-4.2938538
			c0,0,10.4668732-9.480278,8.3248138-23.0466042c-0.7886658-4.9948883-13.4949646,1.4020767-17.4382935,7.6237793
			c0,0,3.3585052-13.3376274-3.3299255-20.3300781c-1.9278564-2.0154839-10.1650543,8.6753349-12.3557892,18.6651154
			c0,0-1.635437-7.8482056-4.9948883-10.6908188c-1.1391907-0.9639244-5.3454132,6.6598549-5.4330444,18.2269707
			c0,0-8.7629623,5.3454056-11.8300018,14.283638s2.1907425,20.9434891,19.9795685,21.8197861L142.7879639,90.8756485z"/>
		<g>
			<path class="st7" d="M142.7879639,90.8756485c0,0-5.1701508-9.902153-11.2165985-6.4845963
				c-6.0464401,3.4175568,1.752594,15.2475586,12.8815613,13.6702271L142.7879639,90.8756485z"/>
			<g>
				<g>
					<path class="st2" d="M140.9464111,95.9902267c0.0302734,0,0.0605316-0.0018921,0.0907898-0.0063019
						c0.3530426-0.0498047,0.5989075-0.3757401,0.5497284-0.728775c-0.0113373-0.083847-1.2532959-8.348793-8.2107239-8.4427261
						c-0.0025177,0-0.0063019,0-0.0088196,0c-0.3530426,0-0.6405182,0.2830582-0.6455688,0.636734
						c-0.0050354,0.3568192,0.2799072,0.6493378,0.636734,0.6543808c5.8630066,0.0794373,6.9397888,7.2581482,6.9498749,7.3306503
						C140.3538055,95.7569733,140.6299438,95.9902267,140.9464111,95.9902267z"/>
				</g>
				<g>
					<path class="st2" d="M136.305191,94.7199097c0.3114319,0,0.5863037-0.2269516,0.636734-0.5453186
						c0.0037842-0.0283737,0.4564362-2.8306351,1.5924683-4.472908c0.2030029-0.2931519,0.1298676-0.6953659-0.1639099-0.8983612
						c-0.2912598-0.2017365-0.6947327-0.131134-0.8977356,0.1632767c-1.3062592,1.8881454-1.7866364,4.881424-1.8068237,5.007515
						c-0.0554657,0.3524094,0.1853485,0.6827545,0.5383911,0.7376022
						C136.2371063,94.717392,136.2711487,94.7199097,136.305191,94.7199097z"/>
				</g>
			</g>
		</g>
	</g>
</g>
<g id="FACE">
	<g>
		<g>
			<path class="st2" d="M161.6119385,92.8828354c0.0441284,0,0.0895233-0.0044098,0.134903-0.0144958
				c0.1197815-0.0252228,2.9315033-0.6537628,3.3740692-3.2114182c0.0466461-0.2736053-0.0857391-0.5472107-0.3303528-0.6789703
				c-2.1434631-1.1536865-4.2743073-4.704277-4.2957458-4.7402115c-0.1828308-0.3089066-0.5812531-0.4066238-0.8851318-0.2244339
				c-0.3063812,0.1828308-0.4072571,0.5787354-0.2244263,0.8851242c0.0882568,0.1487808,2.0741119,3.4553909,4.3499756,4.9507751
				c-0.5220032,1.3573151-2.2418213,1.7532272-2.2607269,1.7570114c-0.3467407,0.0769119-0.5673828,0.4204941-0.491745,0.7678604
				C161.0483246,92.6760559,161.3143768,92.8828354,161.6119385,92.8828354z"/>
		</g>
		<g>
			<path class="st2" d="M158.2517395,98.0076065c3.7258453,0,6.0685272-1.5275345,6.1870422-1.6063385
				c0.2963104-0.197319,0.3757477-0.5963821,0.1790466-0.8933182c-0.1954346-0.296936-0.5951233-0.3776245-0.8939514-0.1821976
				c-0.0302582,0.0201797-3.1483765,2.0306168-7.807251,1.1738663c-0.3555603-0.0693512-0.6871643,0.1664352-0.7527313,0.5175858
				c-0.0643158,0.3511429,0.1676941,0.6877975,0.5182037,0.7520981
				C156.5962219,97.9376297,157.4548798,98.0076065,158.2517395,98.0076065z"/>
		</g>
		<path class="st2" d="M154.7068024,81.2140121c0,0-0.8553925-2.4669418-1.6012573-2.77285
			c-0.7458801-0.3059082-0.4998779,0.9152832-0.4998779,0.9152832s-5.2427368,0.3393173-4.4963531,5.5000534
			C148.109314,84.8564987,149.5755157,81.524353,154.7068024,81.2140121z"/>
		<path class="st2" d="M160.5510559,79.5590286c0,0-0.8148193-2.4869156-0.562973-3.182869
			c0.2518463-0.6959457,0.753067,0.4276657,0.753067,0.4276657s3.0686035-2.9049835,5.348465,1.6657257
			C166.0896149,78.4695511,163.5430756,76.6984482,160.5510559,79.5590286z"/>
		<g>
			
				<ellipse transform="matrix(0.9613246 -0.2754178 0.2754178 0.9613246 -17.9174805 45.9025993)" class="st2" cx="154.4836884" cy="86.7489166" rx="1.9980818" ry="2.4881773"/>
			<circle class="st14" cx="155.1706238" cy="85.973732" r="0.6880187"/>
		</g>
		<g>
			
				<ellipse transform="matrix(0.9613246 -0.2754178 0.2754178 0.9613246 -16.6277103 48.5301056)" class="st2" cx="164.4841614" cy="83.4702682" rx="1.9980818" ry="2.4881773"/>
			<circle class="st14" cx="165.1710968" cy="82.6950836" r="0.6880187"/>
		</g>
	</g>
</g>
<g id="RIGHT_ARM">
	<g>
		<g>
			<path class="st7" d="M110.3591995,287.4490051c0,0,11.9405975,11.9405823,13.7227783,12.4752502
				c1.7821732,0.5346375,15.6831589-6.8613892,15.6831589-6.8613892s7.8415833,3.9207764,10.6930695,2.4950256
				c3.6775208-1.8387451,0.7128754-5.4356384,0.7128754-5.4356384s2.1386108-2.0494995,1.6039581-3.6534424
				c-0.5346527-1.6039734-2.1386108-2.9406128-2.1386108-2.9406128s0.7128754-2.1386108-0.3564301-3.7425842
				c-1.0693054-1.6039429-3.7425842-2.4950256-3.7425842-2.4950256s-0.5346527-2.6732788-1.6039581-3.5643616
				s-9.4455414-2.4950562-11.7623749-1.9603882c-2.3168335,0.5346375-9.8019791,9.2673035-9.8019791,9.2673035l-4.2772293-5.5247498
				L110.3591995,287.4490051z"/>
			<path class="st12" d="M144.9334564,276.8450317c0,0-7.5742493-1.3366394-8.5544586-1.3366394"/>
			<line class="st12" x1="139.230484" y1="281.5678101" x2="148.6760406" y2="283.0826721"/>
			<line class="st12" x1="141.8146515" y1="287.8054199" x2="148.854248" y2="289.1420593"/>
		</g>
		<path class="st0" d="M91.6482773,280.4985046c0,0,9.5223312,8.1980286,12.7639694,10.1584167
			c3.2416458,1.9603882,17.018631-9.0891113,16.8160324-14.9703064l-10.3327408-12.6534729L91.6482773,280.4985046z"/>
		<path class="st6" d="M112.9322281,140.0883636c-33.2264938,27.3528442-62.2759972,90.2715302-59.424511,105.4794464
			s27.0891075,39.4455566,37.0693092,39.9207764c9.9801941,0.4752502,23.7623749-17.584137,23.7623749-23.2871094
			s-15.2079239-25.6633759-15.2079239-25.6633759s28.0396042-32.7920837,36.5940628-54.6534576
			S134.063858,131.3372192,112.9322281,140.0883636z"/>
		<g>
			<path class="st11" d="M98.5002899,282.852478c8.0866318-5.1460571,15.8391113-16.3737793,15.8391113-20.651001
				c0-5.7029724-15.2079239-25.6633759-15.2079239-25.6633759s28.0396042-32.7920837,36.5940628-54.6534576
				c8.0198059-20.4950562-0.4579926-46.9883118-18.9609528-43.009201"/>
			<path class="st11" d="M80.5968246,240.1024628c14.4950485-1.1881256,18.5346527-3.5643616,18.5346527-3.5643616
				s-3.3267288,5.4047089-12.8316803,9.8310699"/>
		</g>
	</g>
</g>
</svg>
